<svg width="337" height="86" viewBox="0 0 337 86" fill="none" xmlns="http://www.w3.org/2000/svg">
<path d="M84.8037 61.1797L86.8125 66.8516L88.8105 61.1797H90.9268V69H89.3101V66.8623L89.4712 63.1724L87.3604 69H86.2539L84.1484 63.1777L84.3096 66.8623V69H82.6982V61.1797H84.8037ZM95.5996 69C95.528 68.8604 95.4761 68.6867 95.4438 68.479C95.0679 68.8979 94.5791 69.1074 93.9775 69.1074C93.4082 69.1074 92.9355 68.9427 92.5596 68.6133C92.1872 68.2839 92.001 67.8685 92.001 67.3672C92.001 66.7513 92.2284 66.2786 92.6831 65.9492C93.1414 65.6198 93.8021 65.4533 94.665 65.4497H95.3794V65.1167C95.3794 64.8481 95.3096 64.6333 95.1699 64.4722C95.0339 64.311 94.8172 64.2305 94.52 64.2305C94.2586 64.2305 94.0527 64.2931 93.9023 64.4185C93.7555 64.5438 93.6821 64.7157 93.6821 64.9341H92.1299C92.1299 64.5975 92.2337 64.286 92.4414 63.9995C92.6491 63.7131 92.9427 63.4893 93.3223 63.3281C93.7018 63.1634 94.1279 63.0811 94.6006 63.0811C95.3167 63.0811 95.8843 63.2619 96.3032 63.6235C96.7257 63.9816 96.937 64.4865 96.937 65.1382V67.6572C96.9406 68.2087 97.0176 68.6258 97.168 68.9087V69H95.5996ZM94.3159 67.9204C94.5451 67.9204 94.7563 67.8703 94.9497 67.77C95.1431 67.6662 95.2863 67.5283 95.3794 67.3564V66.3574H94.7993C94.0223 66.3574 93.6087 66.626 93.5586 67.1631L93.5532 67.2544C93.5532 67.4478 93.6213 67.6071 93.7573 67.7324C93.8934 67.8577 94.0796 67.9204 94.3159 67.9204ZM99.5581 63.1885L99.6064 63.8599C100.022 63.3407 100.579 63.0811 101.277 63.0811C101.893 63.0811 102.351 63.2619 102.652 63.6235C102.953 63.9852 103.107 64.5259 103.114 65.2456V69H101.562V65.2832C101.562 64.9538 101.49 64.7157 101.347 64.5688C101.203 64.4185 100.965 64.3433 100.632 64.3433C100.195 64.3433 99.8678 64.5295 99.6494 64.9019V69H98.0972V63.1885H99.5581ZM107.776 68.4092C107.393 68.8747 106.863 69.1074 106.186 69.1074C105.563 69.1074 105.087 68.9284 104.757 68.5703C104.431 68.2122 104.265 67.6877 104.258 66.9966V63.1885H105.81V66.9429C105.81 67.548 106.086 67.8506 106.637 67.8506C107.164 67.8506 107.525 67.668 107.722 67.3027V63.1885H109.28V69H107.819L107.776 68.4092ZM110.875 69V64.3271H110.01V63.1885H110.875V62.6943C110.875 62.0426 111.061 61.5378 111.434 61.1797C111.81 60.818 112.334 60.6372 113.007 60.6372C113.222 60.6372 113.485 60.673 113.797 60.7446L113.781 61.9478C113.652 61.9155 113.494 61.8994 113.308 61.8994C112.724 61.8994 112.433 62.1733 112.433 62.7212V63.1885H113.587V64.3271H112.433V69H110.875ZM117.761 69C117.689 68.8604 117.637 68.6867 117.605 68.479C117.229 68.8979 116.74 69.1074 116.139 69.1074C115.569 69.1074 115.097 68.9427 114.721 68.6133C114.348 68.2839 114.162 67.8685 114.162 67.3672C114.162 66.7513 114.389 66.2786 114.844 65.9492C115.303 65.6198 115.963 65.4533 116.826 65.4497H117.541V65.1167C117.541 64.8481 117.471 64.6333 117.331 64.4722C117.195 64.311 116.978 64.2305 116.681 64.2305C116.42 64.2305 116.214 64.2931 116.063 64.4185C115.917 64.5438 115.843 64.7157 115.843 64.9341H114.291C114.291 64.5975 114.395 64.286 114.603 63.9995C114.81 63.7131 115.104 63.4893 115.483 63.3281C115.863 63.1634 116.289 63.0811 116.762 63.0811C117.478 63.0811 118.045 63.2619 118.464 63.6235C118.887 63.9816 119.098 64.4865 119.098 65.1382V67.6572C119.102 68.2087 119.179 68.6258 119.329 68.9087V69H117.761ZM116.477 67.9204C116.706 67.9204 116.917 67.8703 117.111 67.77C117.304 67.6662 117.447 67.5283 117.541 67.3564V66.3574H116.96C116.183 66.3574 115.77 66.626 115.72 67.1631L115.714 67.2544C115.714 67.4478 115.782 67.6071 115.918 67.7324C116.055 67.8577 116.241 67.9204 116.477 67.9204ZM122.708 67.856C122.994 67.856 123.227 67.7772 123.406 67.6196C123.585 67.4621 123.678 67.2526 123.685 66.9912H125.141C125.137 67.3851 125.03 67.7467 124.818 68.0762C124.607 68.402 124.317 68.6562 123.948 68.8389C123.583 69.0179 123.178 69.1074 122.734 69.1074C121.904 69.1074 121.248 68.8442 120.769 68.3179C120.289 67.7879 120.049 67.0575 120.049 66.1265V66.0244C120.049 65.1292 120.287 64.4149 120.763 63.8813C121.239 63.3478 121.893 63.0811 122.724 63.0811C123.451 63.0811 124.032 63.2887 124.469 63.7041C124.91 64.1159 125.133 64.6655 125.141 65.353H123.685C123.678 65.0522 123.585 64.8088 123.406 64.6226C123.227 64.4328 122.99 64.3379 122.697 64.3379C122.335 64.3379 122.061 64.4704 121.875 64.7354C121.692 64.9967 121.601 65.4229 121.601 66.0137V66.1748C121.601 66.7728 121.692 67.2025 121.875 67.4639C122.058 67.7253 122.335 67.856 122.708 67.856ZM127.885 61.7598V63.1885H128.879V64.3271H127.885V67.2275C127.885 67.4424 127.926 67.5964 128.009 67.6895C128.091 67.7826 128.249 67.8291 128.481 67.8291C128.653 67.8291 128.806 67.8166 128.938 67.7915V68.9678C128.634 69.0609 128.32 69.1074 127.998 69.1074C126.91 69.1074 126.354 68.5578 126.333 67.4585V64.3271H125.484V63.1885H126.333V61.7598H127.885ZM133.224 68.4092C132.841 68.8747 132.311 69.1074 131.634 69.1074C131.011 69.1074 130.535 68.9284 130.206 68.5703C129.88 68.2122 129.713 67.6877 129.706 66.9966V63.1885H131.258V66.9429C131.258 67.548 131.534 67.8506 132.085 67.8506C132.612 67.8506 132.973 67.668 133.17 67.3027V63.1885H134.728V69H133.267L133.224 68.4092ZM139.165 64.644C138.953 64.6154 138.767 64.6011 138.606 64.6011C138.019 64.6011 137.634 64.7998 137.451 65.1973V69H135.899V63.1885H137.365L137.408 63.8813C137.72 63.3478 138.151 63.0811 138.703 63.0811C138.875 63.0811 139.036 63.1043 139.186 63.1509L139.165 64.644ZM142.484 69.1074C141.632 69.1074 140.937 68.846 140.4 68.3232C139.866 67.8005 139.6 67.104 139.6 66.2339V66.0835C139.6 65.4998 139.712 64.9788 139.938 64.5205C140.164 64.0586 140.482 63.7041 140.894 63.457C141.309 63.2064 141.782 63.0811 142.312 63.0811C143.107 63.0811 143.732 63.3317 144.187 63.833C144.645 64.3343 144.874 65.0451 144.874 65.9653V66.5991H141.173C141.223 66.9787 141.374 67.283 141.625 67.5122C141.879 67.7414 142.199 67.856 142.586 67.856C143.184 67.856 143.651 67.6393 143.988 67.2061L144.75 68.0601C144.518 68.3895 144.203 68.6473 143.805 68.8335C143.408 69.0161 142.967 69.1074 142.484 69.1074ZM142.307 64.3379C141.999 64.3379 141.748 64.4417 141.555 64.6494C141.365 64.8571 141.243 65.1543 141.189 65.541H143.349V65.4175C143.341 65.0737 143.248 64.8088 143.069 64.6226C142.89 64.4328 142.636 64.3379 142.307 64.3379ZM148.908 67.394C148.908 67.2043 148.813 67.0557 148.623 66.9482C148.437 66.8372 148.136 66.7388 147.721 66.6528C146.339 66.3628 145.647 65.7756 145.647 64.8911C145.647 64.3755 145.861 63.9458 146.287 63.6021C146.716 63.2547 147.277 63.0811 147.968 63.0811C148.705 63.0811 149.294 63.2547 149.735 63.6021C150.179 63.9494 150.401 64.4006 150.401 64.9556H148.849C148.849 64.7336 148.777 64.5509 148.634 64.4077C148.491 64.2609 148.267 64.1875 147.962 64.1875C147.701 64.1875 147.499 64.2466 147.355 64.3647C147.212 64.4829 147.141 64.6333 147.141 64.8159C147.141 64.9878 147.221 65.1274 147.382 65.2349C147.547 65.3387 147.823 65.43 148.209 65.5088C148.596 65.584 148.922 65.6699 149.187 65.7666C150.007 66.0674 150.417 66.5884 150.417 67.3296C150.417 67.8595 150.19 68.2892 149.735 68.6187C149.28 68.9445 148.693 69.1074 147.973 69.1074C147.486 69.1074 147.053 69.0215 146.673 68.8496C146.297 68.6742 146.002 68.436 145.787 68.1353C145.572 67.8309 145.465 67.5033 145.465 67.1523H146.937C146.951 67.4281 147.053 67.6393 147.243 67.7861C147.432 67.9329 147.687 68.0063 148.005 68.0063C148.303 68.0063 148.526 67.9508 148.677 67.8398C148.831 67.7253 148.908 67.5767 148.908 67.394ZM153.919 66.0405C153.919 65.464 154.03 64.9502 154.252 64.499C154.474 64.0479 154.793 63.6987 155.208 63.4517C155.627 63.2046 156.112 63.0811 156.664 63.0811C157.448 63.0811 158.087 63.321 158.581 63.8008C159.079 64.2806 159.356 64.9323 159.414 65.7559L159.424 66.1533C159.424 67.0449 159.175 67.7611 158.678 68.3018C158.18 68.8389 157.512 69.1074 156.674 69.1074C155.836 69.1074 155.167 68.8389 154.666 68.3018C154.168 67.7646 153.919 67.0342 153.919 66.1104V66.0405ZM155.471 66.1533C155.471 66.7048 155.575 67.1273 155.783 67.4209C155.99 67.7109 156.288 67.856 156.674 67.856C157.05 67.856 157.344 67.7127 157.555 67.4263C157.766 67.1362 157.872 66.6743 157.872 66.0405C157.872 65.4998 157.766 65.0809 157.555 64.7837C157.344 64.4865 157.047 64.3379 156.664 64.3379C156.284 64.3379 155.99 64.4865 155.783 64.7837C155.575 65.0773 155.471 65.5339 155.471 66.1533ZM160.805 69V64.3271H159.94V63.1885H160.805V62.6943C160.805 62.0426 160.991 61.5378 161.363 61.1797C161.739 60.818 162.264 60.6372 162.937 60.6372C163.152 60.6372 163.415 60.673 163.727 60.7446L163.71 61.9478C163.582 61.9155 163.424 61.8994 163.238 61.8994C162.654 61.8994 162.362 62.1733 162.362 62.7212V63.1885H163.517V64.3271H162.362V69H160.805ZM168.775 66.2446V69H167.164V61.1797H170.215C170.802 61.1797 171.318 61.2871 171.762 61.502C172.209 61.7168 172.553 62.0229 172.793 62.4204C173.033 62.8143 173.153 63.2637 173.153 63.7686C173.153 64.5348 172.89 65.14 172.363 65.584C171.84 66.0244 171.115 66.2446 170.188 66.2446H168.775ZM168.775 64.9395H170.215C170.641 64.9395 170.965 64.8392 171.187 64.6387C171.413 64.4382 171.525 64.1517 171.525 63.7793C171.525 63.3962 171.413 63.0864 171.187 62.8501C170.961 62.6138 170.65 62.492 170.252 62.4849H168.775V64.9395ZM176.762 69.1074C175.91 69.1074 175.215 68.846 174.678 68.3232C174.145 67.8005 173.878 67.104 173.878 66.2339V66.0835C173.878 65.4998 173.991 64.9788 174.216 64.5205C174.442 64.0586 174.761 63.7041 175.172 63.457C175.588 63.2064 176.06 63.0811 176.59 63.0811C177.385 63.0811 178.01 63.3317 178.465 63.833C178.923 64.3343 179.152 65.0451 179.152 65.9653V66.5991H175.452C175.502 66.9787 175.652 67.283 175.903 67.5122C176.157 67.7414 176.478 67.856 176.864 67.856C177.462 67.856 177.93 67.6393 178.266 67.2061L179.029 68.0601C178.796 68.3895 178.481 68.6473 178.083 68.8335C177.686 69.0161 177.246 69.1074 176.762 69.1074ZM176.585 64.3379C176.277 64.3379 176.026 64.4417 175.833 64.6494C175.643 64.8571 175.521 65.1543 175.468 65.541H177.627V65.4175C177.62 65.0737 177.527 64.8088 177.348 64.6226C177.169 64.4328 176.914 64.3379 176.585 64.3379ZM183.304 64.644C183.093 64.6154 182.907 64.6011 182.746 64.6011C182.158 64.6011 181.773 64.7998 181.591 65.1973V69H180.039V63.1885H181.505L181.548 63.8813C181.859 63.3478 182.291 63.0811 182.842 63.0811C183.014 63.0811 183.175 63.1043 183.326 63.1509L183.304 64.644ZM187.204 67.394C187.204 67.2043 187.109 67.0557 186.919 66.9482C186.733 66.8372 186.432 66.7388 186.017 66.6528C184.634 66.3628 183.943 65.7756 183.943 64.8911C183.943 64.3755 184.156 63.9458 184.583 63.6021C185.012 63.2547 185.573 63.0811 186.264 63.0811C187.001 63.0811 187.59 63.2547 188.031 63.6021C188.475 63.9494 188.697 64.4006 188.697 64.9556H187.145C187.145 64.7336 187.073 64.5509 186.93 64.4077C186.786 64.2609 186.563 64.1875 186.258 64.1875C185.997 64.1875 185.795 64.2466 185.651 64.3647C185.508 64.4829 185.437 64.6333 185.437 64.8159C185.437 64.9878 185.517 65.1274 185.678 65.2349C185.843 65.3387 186.119 65.43 186.505 65.5088C186.892 65.584 187.218 65.6699 187.483 65.7666C188.303 66.0674 188.713 66.5884 188.713 67.3296C188.713 67.8595 188.486 68.2892 188.031 68.6187C187.576 68.9445 186.989 69.1074 186.269 69.1074C185.782 69.1074 185.349 69.0215 184.969 68.8496C184.593 68.6742 184.298 68.436 184.083 68.1353C183.868 67.8309 183.761 67.5033 183.761 67.1523H185.232C185.247 67.4281 185.349 67.6393 185.539 67.7861C185.728 67.9329 185.983 68.0063 186.301 68.0063C186.598 68.0063 186.822 67.9508 186.973 67.8398C187.127 67.7253 187.204 67.5767 187.204 67.394ZM189.476 66.0405C189.476 65.464 189.587 64.9502 189.809 64.499C190.031 64.0479 190.349 63.6987 190.765 63.4517C191.184 63.2046 191.669 63.0811 192.22 63.0811C193.004 63.0811 193.644 63.321 194.138 63.8008C194.635 64.2806 194.913 64.9323 194.97 65.7559L194.981 66.1533C194.981 67.0449 194.732 67.7611 194.234 68.3018C193.737 68.8389 193.069 69.1074 192.231 69.1074C191.393 69.1074 190.723 68.8389 190.222 68.3018C189.724 67.7646 189.476 67.0342 189.476 66.1104V66.0405ZM191.028 66.1533C191.028 66.7048 191.132 67.1273 191.339 67.4209C191.547 67.7109 191.844 67.856 192.231 67.856C192.607 67.856 192.901 67.7127 193.112 67.4263C193.323 67.1362 193.429 66.6743 193.429 66.0405C193.429 65.4998 193.323 65.0809 193.112 64.7837C192.901 64.4865 192.603 64.3379 192.22 64.3379C191.841 64.3379 191.547 64.4865 191.339 64.7837C191.132 65.0773 191.028 65.5339 191.028 66.1533ZM197.366 63.1885L197.414 63.8599C197.829 63.3407 198.386 63.0811 199.084 63.0811C199.7 63.0811 200.159 63.2619 200.459 63.6235C200.76 63.9852 200.914 64.5259 200.921 65.2456V69H199.369V65.2832C199.369 64.9538 199.298 64.7157 199.154 64.5688C199.011 64.4185 198.773 64.3433 198.44 64.3433C198.003 64.3433 197.675 64.5295 197.457 64.9019V69H195.905V63.1885H197.366ZM205.471 69C205.399 68.8604 205.347 68.6867 205.315 68.479C204.939 68.8979 204.45 69.1074 203.849 69.1074C203.279 69.1074 202.807 68.9427 202.431 68.6133C202.058 68.2839 201.872 67.8685 201.872 67.3672C201.872 66.7513 202.099 66.2786 202.554 65.9492C203.013 65.6198 203.673 65.4533 204.536 65.4497H205.25V65.1167C205.25 64.8481 205.181 64.6333 205.041 64.4722C204.905 64.311 204.688 64.2305 204.391 64.2305C204.13 64.2305 203.924 64.2931 203.773 64.4185C203.627 64.5438 203.553 64.7157 203.553 64.9341H202.001C202.001 64.5975 202.105 64.286 202.312 63.9995C202.52 63.7131 202.814 63.4893 203.193 63.3281C203.573 63.1634 203.999 63.0811 204.472 63.0811C205.188 63.0811 205.755 63.2619 206.174 63.6235C206.597 63.9816 206.808 64.4865 206.808 65.1382V67.6572C206.812 68.2087 206.889 68.6258 207.039 68.9087V69H205.471ZM204.187 67.9204C204.416 67.9204 204.627 67.8703 204.821 67.77C205.014 67.6662 205.157 67.5283 205.25 67.3564V66.3574H204.67C203.893 66.3574 203.48 66.626 203.43 67.1631L203.424 67.2544C203.424 67.4478 203.492 67.6071 203.628 67.7324C203.764 67.8577 203.951 67.9204 204.187 67.9204ZM209.639 69H208.081V60.75H209.639V69ZM213.447 66.8945C213.447 66.5329 213.547 66.1981 213.748 65.8901C213.952 65.5822 214.324 65.2402 214.865 64.8643C214.632 64.5527 214.449 64.2609 214.317 63.9888C214.184 63.7131 214.118 63.4266 214.118 63.1294C214.118 62.5207 214.31 62.0265 214.693 61.647C215.08 61.2638 215.599 61.0723 216.25 61.0723C216.834 61.0723 217.312 61.2459 217.685 61.5933C218.061 61.9406 218.249 62.3739 218.249 62.8931C218.249 63.5161 217.933 64.0658 217.303 64.542L216.702 64.9771L218.05 66.5454C218.261 66.13 218.367 65.6717 218.367 65.1704H219.688C219.688 66.1873 219.453 67.0109 218.984 67.6411L220.155 69H218.394L217.991 68.5381C217.414 68.9176 216.752 69.1074 216.003 69.1074C215.23 69.1074 214.611 68.9051 214.145 68.5005C213.68 68.0923 213.447 67.557 213.447 66.8945ZM216.079 67.8613C216.451 67.8613 216.804 67.7575 217.137 67.5498L215.595 65.7666L215.482 65.8472C215.164 66.1193 215.004 66.4398 215.004 66.8086C215.004 67.1201 215.103 67.3743 215.3 67.5713C215.5 67.7646 215.76 67.8613 216.079 67.8613ZM215.509 63.1079C215.509 63.3765 215.667 63.7148 215.982 64.123L216.396 63.8491C216.607 63.7131 216.752 63.5806 216.831 63.4517C216.913 63.3228 216.954 63.1688 216.954 62.9897C216.954 62.8107 216.888 62.6549 216.755 62.5225C216.623 62.39 216.453 62.3237 216.245 62.3237C216.023 62.3237 215.844 62.3953 215.708 62.5386C215.576 62.6818 215.509 62.8716 215.509 63.1079ZM230.086 69H228.475V65.6484H225.333V69H223.722V61.1797H225.333V64.3486H228.475V61.1797H230.086V69ZM231.155 66.0405C231.155 65.464 231.266 64.9502 231.488 64.499C231.71 64.0479 232.029 63.6987 232.444 63.4517C232.863 63.2046 233.348 63.0811 233.9 63.0811C234.684 63.0811 235.323 63.321 235.817 63.8008C236.315 64.2806 236.593 64.9323 236.65 65.7559L236.661 66.1533C236.661 67.0449 236.412 67.7611 235.914 68.3018C235.416 68.8389 234.749 69.1074 233.911 69.1074C233.073 69.1074 232.403 68.8389 231.902 68.3018C231.404 67.7646 231.155 67.0342 231.155 66.1104V66.0405ZM232.708 66.1533C232.708 66.7048 232.811 67.1273 233.019 67.4209C233.227 67.7109 233.524 67.856 233.911 67.856C234.287 67.856 234.58 67.7127 234.792 67.4263C235.003 67.1362 235.108 66.6743 235.108 66.0405C235.108 65.4998 235.003 65.0809 234.792 64.7837C234.58 64.4865 234.283 64.3379 233.9 64.3379C233.52 64.3379 233.227 64.4865 233.019 64.7837C232.811 65.0773 232.708 65.5339 232.708 66.1533ZM239.072 63.1885L239.121 63.8384C239.532 63.3335 240.089 63.0811 240.791 63.0811C241.539 63.0811 242.053 63.3765 242.333 63.9673C242.741 63.3765 243.323 63.0811 244.078 63.0811C244.708 63.0811 245.177 63.2655 245.485 63.6343C245.793 63.9995 245.947 64.5509 245.947 65.2886V69H244.39V65.2939C244.39 64.9645 244.325 64.7246 244.196 64.5742C244.067 64.4202 243.84 64.3433 243.514 64.3433C243.049 64.3433 242.726 64.5653 242.547 65.0093L242.553 69H241V65.2993C241 64.9627 240.934 64.7192 240.802 64.5688C240.669 64.4185 240.444 64.3433 240.125 64.3433C239.685 64.3433 239.366 64.5259 239.169 64.8911V69H237.617V63.1885H239.072ZM249.82 69.1074C248.968 69.1074 248.273 68.846 247.736 68.3232C247.202 67.8005 246.936 67.104 246.936 66.2339V66.0835C246.936 65.4998 247.048 64.9788 247.274 64.5205C247.5 64.0586 247.818 63.7041 248.23 63.457C248.645 63.2064 249.118 63.0811 249.648 63.0811C250.443 63.0811 251.068 63.3317 251.522 63.833C251.981 64.3343 252.21 65.0451 252.21 65.9653V66.5991H248.509C248.559 66.9787 248.71 67.283 248.96 67.5122C249.215 67.7414 249.535 67.856 249.922 67.856C250.52 67.856 250.987 67.6393 251.324 67.2061L252.086 68.0601C251.854 68.3895 251.539 68.6473 251.141 68.8335C250.744 69.0161 250.303 69.1074 249.82 69.1074ZM249.643 64.3379C249.335 64.3379 249.084 64.4417 248.891 64.6494C248.701 64.8571 248.579 65.1543 248.525 65.541H250.685V65.4175C250.677 65.0737 250.584 64.8088 250.405 64.6226C250.226 64.4328 249.972 64.3379 249.643 64.3379ZM258.252 67.856C258.539 67.856 258.772 67.7772 258.951 67.6196C259.13 67.4621 259.223 67.2526 259.23 66.9912H260.686C260.682 67.3851 260.575 67.7467 260.363 68.0762C260.152 68.402 259.862 68.6562 259.493 68.8389C259.128 69.0179 258.723 69.1074 258.279 69.1074C257.449 69.1074 256.793 68.8442 256.313 68.3179C255.834 67.7879 255.594 67.0575 255.594 66.1265V66.0244C255.594 65.1292 255.832 64.4149 256.308 63.8813C256.784 63.3478 257.438 63.0811 258.269 63.0811C258.995 63.0811 259.577 63.2887 260.014 63.7041C260.455 64.1159 260.678 64.6655 260.686 65.353H259.23C259.223 65.0522 259.13 64.8088 258.951 64.6226C258.772 64.4328 258.535 64.3379 258.242 64.3379C257.88 64.3379 257.606 64.4704 257.42 64.7354C257.237 64.9967 257.146 65.4229 257.146 66.0137V66.1748C257.146 66.7728 257.237 67.2025 257.42 67.4639C257.603 67.7253 257.88 67.856 258.252 67.856ZM264.939 69C264.868 68.8604 264.816 68.6867 264.784 68.479C264.408 68.8979 263.919 69.1074 263.317 69.1074C262.748 69.1074 262.275 68.9427 261.899 68.6133C261.527 68.2839 261.341 67.8685 261.341 67.3672C261.341 66.7513 261.568 66.2786 262.023 65.9492C262.481 65.6198 263.142 65.4533 264.005 65.4497H264.719V65.1167C264.719 64.8481 264.649 64.6333 264.51 64.4722C264.374 64.311 264.157 64.2305 263.86 64.2305C263.598 64.2305 263.393 64.2931 263.242 64.4185C263.095 64.5438 263.022 64.7157 263.022 64.9341H261.47C261.47 64.5975 261.574 64.286 261.781 63.9995C261.989 63.7131 262.283 63.4893 262.662 63.3281C263.042 63.1634 263.468 63.0811 263.94 63.0811C264.657 63.0811 265.224 63.2619 265.643 63.6235C266.066 63.9816 266.277 64.4865 266.277 65.1382V67.6572C266.28 68.2087 266.357 68.6258 266.508 68.9087V69H264.939ZM263.656 67.9204C263.885 67.9204 264.096 67.8703 264.29 67.77C264.483 67.6662 264.626 67.5283 264.719 67.3564V66.3574H264.139C263.362 66.3574 262.949 66.626 262.898 67.1631L262.893 67.2544C262.893 67.4478 262.961 67.6071 263.097 67.7324C263.233 67.8577 263.419 67.9204 263.656 67.9204ZM270.735 64.644C270.524 64.6154 270.337 64.6011 270.176 64.6011C269.589 64.6011 269.204 64.7998 269.021 65.1973V69H267.469V63.1885H268.936L268.979 63.8813C269.29 63.3478 269.722 63.0811 270.273 63.0811C270.445 63.0811 270.606 63.1043 270.756 63.1509L270.735 64.644ZM274.054 69.1074C273.202 69.1074 272.507 68.846 271.97 68.3232C271.437 67.8005 271.17 67.104 271.17 66.2339V66.0835C271.17 65.4998 271.283 64.9788 271.508 64.5205C271.734 64.0586 272.053 63.7041 272.464 63.457C272.88 63.2064 273.352 63.0811 273.882 63.0811C274.677 63.0811 275.302 63.3317 275.757 63.833C276.215 64.3343 276.444 65.0451 276.444 65.9653V66.5991H272.744C272.794 66.9787 272.944 67.283 273.195 67.5122C273.449 67.7414 273.77 67.856 274.156 67.856C274.754 67.856 275.222 67.6393 275.558 67.2061L276.321 68.0601C276.088 68.3895 275.773 68.6473 275.375 68.8335C274.978 69.0161 274.538 69.1074 274.054 69.1074ZM273.877 64.3379C273.569 64.3379 273.318 64.4417 273.125 64.6494C272.935 64.8571 272.813 65.1543 272.76 65.541H274.919V65.4175C274.912 65.0737 274.819 64.8088 274.64 64.6226C274.461 64.4328 274.206 64.3379 273.877 64.3379ZM285.301 66.1479C285.301 67.0431 285.097 67.7611 284.689 68.3018C284.284 68.8389 283.736 69.1074 283.045 69.1074C282.458 69.1074 281.984 68.9033 281.622 68.4951V71.2344H280.07V63.1885H281.509L281.563 63.7578C281.939 63.3066 282.43 63.0811 283.035 63.0811C283.751 63.0811 284.308 63.346 284.705 63.876C285.103 64.4059 285.301 65.1364 285.301 66.0674V66.1479ZM283.749 66.0352C283.749 65.4945 283.652 65.0773 283.459 64.7837C283.269 64.4901 282.992 64.3433 282.626 64.3433C282.139 64.3433 281.805 64.5295 281.622 64.9019V67.2812C281.812 67.6644 282.15 67.856 282.637 67.856C283.378 67.856 283.749 67.249 283.749 66.0352ZM289.534 64.644C289.322 64.6154 289.136 64.6011 288.975 64.6011C288.388 64.6011 288.003 64.7998 287.82 65.1973V69H286.268V63.1885H287.734L287.777 63.8813C288.089 63.3478 288.52 63.0811 289.072 63.0811C289.244 63.0811 289.405 63.1043 289.555 63.1509L289.534 64.644ZM289.851 66.0405C289.851 65.464 289.962 64.9502 290.184 64.499C290.406 64.0479 290.724 63.6987 291.14 63.4517C291.559 63.2046 292.044 63.0811 292.595 63.0811C293.379 63.0811 294.019 63.321 294.513 63.8008C295.01 64.2806 295.288 64.9323 295.345 65.7559L295.356 66.1533C295.356 67.0449 295.107 67.7611 294.609 68.3018C294.112 68.8389 293.444 69.1074 292.606 69.1074C291.768 69.1074 291.098 68.8389 290.597 68.3018C290.099 67.7646 289.851 67.0342 289.851 66.1104V66.0405ZM291.403 66.1533C291.403 66.7048 291.507 67.1273 291.714 67.4209C291.922 67.7109 292.219 67.856 292.606 67.856C292.982 67.856 293.276 67.7127 293.487 67.4263C293.698 67.1362 293.804 66.6743 293.804 66.0405C293.804 65.4998 293.698 65.0809 293.487 64.7837C293.276 64.4865 292.978 64.3379 292.595 64.3379C292.216 64.3379 291.922 64.4865 291.714 64.7837C291.507 65.0773 291.403 65.5339 291.403 66.1533ZM296.07 66.0513C296.07 65.1453 296.273 64.4238 296.677 63.8867C297.085 63.3496 297.642 63.0811 298.348 63.0811C298.913 63.0811 299.381 63.2923 299.75 63.7148V60.75H301.307V69H299.905L299.83 68.3823C299.443 68.8657 298.946 69.1074 298.337 69.1074C297.653 69.1074 297.103 68.8389 296.688 68.3018C296.276 67.7611 296.07 67.0109 296.07 66.0513ZM297.623 66.1641C297.623 66.7083 297.717 67.1255 297.907 67.4155C298.097 67.7056 298.373 67.8506 298.734 67.8506C299.214 67.8506 299.553 67.6483 299.75 67.2437V64.9502C299.556 64.5456 299.221 64.3433 298.745 64.3433C297.997 64.3433 297.623 64.9502 297.623 66.1641ZM305.991 68.4092C305.608 68.8747 305.078 69.1074 304.401 69.1074C303.778 69.1074 303.302 68.9284 302.972 68.5703C302.646 68.2122 302.48 67.6877 302.473 66.9966V63.1885H304.025V66.9429C304.025 67.548 304.301 67.8506 304.852 67.8506C305.378 67.8506 305.74 67.668 305.937 67.3027V63.1885H307.495V69H306.034L305.991 68.4092ZM311.083 67.856C311.369 67.856 311.602 67.7772 311.781 67.6196C311.96 67.4621 312.053 67.2526 312.06 66.9912H313.516C313.512 67.3851 313.405 67.7467 313.193 68.0762C312.982 68.402 312.692 68.6562 312.323 68.8389C311.958 69.0179 311.553 69.1074 311.109 69.1074C310.279 69.1074 309.623 68.8442 309.144 68.3179C308.664 67.7879 308.424 67.0575 308.424 66.1265V66.0244C308.424 65.1292 308.662 64.4149 309.138 63.8813C309.614 63.3478 310.268 63.0811 311.099 63.0811C311.826 63.0811 312.407 63.2887 312.844 63.7041C313.285 64.1159 313.508 64.6655 313.516 65.353H312.06C312.053 65.0522 311.96 64.8088 311.781 64.6226C311.602 64.4328 311.365 64.3379 311.072 64.3379C310.71 64.3379 310.436 64.4704 310.25 64.7354C310.067 64.9967 309.976 65.4229 309.976 66.0137V66.1748C309.976 66.7728 310.067 67.2025 310.25 67.4639C310.433 67.7253 310.71 67.856 311.083 67.856ZM316.26 61.7598V63.1885H317.254V64.3271H316.26V67.2275C316.26 67.4424 316.301 67.5964 316.384 67.6895C316.466 67.7826 316.624 67.8291 316.856 67.8291C317.028 67.8291 317.181 67.8166 317.313 67.7915V68.9678C317.009 69.0609 316.695 69.1074 316.373 69.1074C315.285 69.1074 314.729 68.5578 314.708 67.4585V64.3271H313.859V63.1885H314.708V61.7598H316.26ZM321.266 67.394C321.266 67.2043 321.171 67.0557 320.981 66.9482C320.795 66.8372 320.494 66.7388 320.079 66.6528C318.697 66.3628 318.006 65.7756 318.006 64.8911C318.006 64.3755 318.219 63.9458 318.645 63.6021C319.075 63.2547 319.635 63.0811 320.326 63.0811C321.064 63.0811 321.653 63.2547 322.093 63.6021C322.537 63.9494 322.759 64.4006 322.759 64.9556H321.207C321.207 64.7336 321.135 64.5509 320.992 64.4077C320.849 64.2609 320.625 64.1875 320.321 64.1875C320.059 64.1875 319.857 64.2466 319.714 64.3647C319.571 64.4829 319.499 64.6333 319.499 64.8159C319.499 64.9878 319.58 65.1274 319.741 65.2349C319.905 65.3387 320.181 65.43 320.568 65.5088C320.955 65.584 321.28 65.6699 321.545 65.7666C322.365 66.0674 322.775 66.5884 322.775 67.3296C322.775 67.8595 322.548 68.2892 322.093 68.6187C321.639 68.9445 321.051 69.1074 320.332 69.1074C319.845 69.1074 319.411 69.0215 319.032 68.8496C318.656 68.6742 318.36 68.436 318.146 68.1353C317.931 67.8309 317.823 67.5033 317.823 67.1523H319.295C319.309 67.4281 319.411 67.6393 319.601 67.7861C319.791 67.9329 320.045 68.0063 320.364 68.0063C320.661 68.0063 320.885 67.9508 321.035 67.8398C321.189 67.7253 321.266 67.5767 321.266 67.394Z" fill="#3A307C"/>
<path d="M112.592 44.3887C108.58 48.4681 104.475 50.5078 100.277 50.5078C99.0586 50.5078 97.8822 50.347 96.748 50.0254C95.6309 49.7207 94.2598 49.196 92.6348 48.4512C91.0267 47.7064 89.6048 47.1647 88.3691 46.8262C86.084 49.3314 84.0189 50.584 82.1738 50.584C81.5306 50.584 80.9974 50.3724 80.5742 49.9492C80.151 49.526 79.9395 49.0098 79.9395 48.4004C79.9395 47.1139 80.5658 45.9883 81.8184 45.0234C83.0879 44.0417 84.8737 43.3646 87.1758 42.9922C88.1406 41.6719 88.7585 40.3854 89.0293 39.1328C89.3001 37.8633 89.5117 35.7812 89.6641 32.8867C89.9518 26.9284 91.543 22.265 94.4375 18.8965C97.349 15.5111 100.506 13.8184 103.908 13.8184C106.244 13.8184 108.157 14.5632 109.646 16.0527C111.153 17.5254 111.906 19.4128 111.906 21.7148C111.906 24.3724 111.119 26.6999 109.545 28.6973C107.971 30.6947 106.16 31.6934 104.111 31.6934C103.045 31.6934 102.207 31.4056 101.598 30.8301C100.988 30.2376 100.684 29.4336 100.684 28.418C100.684 27.8932 100.785 27.2839 100.988 26.5898C101.445 27.1146 102.021 27.377 102.715 27.377C103.866 27.377 104.873 26.6914 105.736 25.3203C106.6 23.9492 107.031 22.3158 107.031 20.4199C107.031 18.9642 106.701 17.8216 106.041 16.9922C105.381 16.1458 104.475 15.7227 103.324 15.7227C101.936 15.7227 100.853 16.222 100.074 17.2207C99.3125 18.2194 98.7793 19.4128 98.4746 20.8008C98.1699 22.1888 97.8398 24.4316 97.4844 27.5293C97.1458 30.627 96.5703 33.3776 95.7578 35.7812C94.9622 38.168 93.4642 40.5124 91.2637 42.8145C92.7025 42.7129 93.9466 42.7975 94.9961 43.0684C96.0625 43.3392 97.5775 43.8555 99.541 44.6172C101.521 45.362 103.223 45.7344 104.645 45.7344C107.421 45.7344 110.07 44.3125 112.592 41.4688V44.3887ZM139.684 44.3887C136.975 46.9616 135.037 48.6374 133.869 49.416C132.701 50.1947 131.584 50.584 130.518 50.584C127.843 50.584 126.582 48.2227 126.734 43.5C125.042 45.9206 123.476 47.7064 122.037 48.8574C120.615 50.0085 119.143 50.584 117.619 50.584C116.13 50.584 114.86 49.89 113.811 48.502C112.778 47.097 112.262 45.3789 112.262 43.3477C112.262 40.8086 112.956 38.388 114.344 36.0859C115.749 33.7839 117.543 31.9219 119.727 30.5C121.91 29.0781 123.84 28.3672 125.516 28.3672C127.632 28.3672 129.113 29.3405 129.959 31.2871L135.139 28.418H136.561L134.326 35.8574C133.175 39.5983 132.6 42.1628 132.6 43.5508C132.6 45.0065 133.116 45.7344 134.148 45.7344C134.809 45.7344 135.536 45.3874 136.332 44.6934C137.128 43.9824 138.245 42.9076 139.684 41.4688V44.3887ZM121.098 45.7852C122.79 45.7852 124.382 44.3464 125.871 41.4688C127.378 38.5742 128.131 35.9082 128.131 33.4707C128.131 32.5228 127.919 31.7865 127.496 31.2617C127.073 30.7201 126.506 30.4492 125.795 30.4492C124.102 30.4492 122.494 31.888 120.971 34.7656C119.464 37.6432 118.711 40.2923 118.711 42.7129C118.711 43.627 118.931 44.3717 119.371 44.9473C119.828 45.5059 120.404 45.7852 121.098 45.7852ZM147.504 29.5098C148.672 29.2051 149.848 28.9596 151.033 28.7734C152.218 28.5703 152.929 28.4688 153.166 28.4688C153.335 28.4688 153.42 28.5365 153.42 28.6719C153.42 28.9258 153.352 29.1882 153.217 29.459C152.946 30.2376 152.811 30.9824 152.811 31.6934C152.811 32.5736 153.318 33.7754 154.334 35.2988C155.35 36.8223 155.857 38.2357 155.857 39.5391C155.857 42.1289 154.613 44.6257 152.125 47.0293C149.654 49.4329 147.089 50.6348 144.432 50.6348C143.281 50.6348 142.231 50.3301 141.283 49.7207C140.335 49.1113 139.861 48.4596 139.861 47.7656C139.861 47.3594 140.327 46.5892 141.258 45.4551C142.206 44.321 142.883 43.7539 143.289 43.7539C143.831 43.7539 144.313 44.4479 144.736 45.8359C145.16 47.224 145.887 47.918 146.92 47.918C147.952 47.918 148.917 47.444 149.814 46.4961C150.729 45.5312 151.186 44.4987 151.186 43.3984C151.186 42.332 150.61 40.9102 149.459 39.1328C148.308 37.3555 147.546 35.8659 147.174 34.6641C145.21 37.8294 142.722 41.071 139.709 44.3887H139.125V42.1035C143.272 37.6855 146.065 33.4876 147.504 29.5098ZM172.793 18.541C172.793 22.6035 171.295 24.6348 168.299 24.6348C166.843 24.6348 165.599 24.1947 164.566 23.3145C165.548 21.8249 166.31 20.1491 166.852 18.2871C168.189 19.1165 169.264 19.5312 170.076 19.5312C170.99 19.5312 171.896 19.2012 172.793 18.541ZM173.301 44.3887C169.34 48.5527 166.378 50.6348 164.414 50.6348C163.331 50.6348 162.417 50.0846 161.672 48.9844C160.927 47.8672 160.555 46.4707 160.555 44.7949C160.555 41.1895 161.773 36.196 164.211 29.8145L170.66 28.4688H170.965L168.426 36.416C167.376 39.6999 166.852 42.0443 166.852 43.4492C166.852 44.0078 166.97 44.4648 167.207 44.8203C167.461 45.1589 167.774 45.3281 168.146 45.3281C168.807 45.3281 169.467 45.0911 170.127 44.6172C170.804 44.1263 171.862 43.0768 173.301 41.4688V44.3887ZM187.926 44.3887C185.793 46.5046 183.948 48.0703 182.391 49.0859C180.833 50.0846 179.352 50.584 177.947 50.584C176.492 50.584 175.307 49.9746 174.393 48.7559C173.495 47.5202 173.047 45.9036 173.047 43.9062C173.047 42.1458 173.47 39.8184 174.316 36.9238L175.434 33.0898L173.479 33.1914L174.291 29.2051L176.703 29.1035L179.09 21.1816L185.895 19.7852L183.305 28.6211L186.834 28.418L185.996 32.3281L182.061 32.6328L180.359 38.3203C179.784 40.3008 179.496 41.875 179.496 43.043C179.496 43.8385 179.691 44.4902 180.08 44.998C180.486 45.4889 181.003 45.7344 181.629 45.7344C182.492 45.7344 183.347 45.4635 184.193 44.9219C185.04 44.3633 186.284 43.2122 187.926 41.4688V44.3887ZM215.043 44.3887C212.335 46.9616 210.396 48.6374 209.229 49.416C208.061 50.1947 206.943 50.584 205.877 50.584C203.202 50.584 201.941 48.2227 202.094 43.5C200.401 45.9206 198.835 47.7064 197.396 48.8574C195.975 50.0085 194.502 50.584 192.979 50.584C191.489 50.584 190.219 49.89 189.17 48.502C188.137 47.097 187.621 45.3789 187.621 43.3477C187.621 40.8086 188.315 38.388 189.703 36.0859C191.108 33.7839 192.902 31.9219 195.086 30.5C197.27 29.0781 199.199 28.3672 200.875 28.3672C202.991 28.3672 204.472 29.3405 205.318 31.2871L210.498 28.418H211.92L209.686 35.8574C208.535 39.5983 207.959 42.1628 207.959 43.5508C207.959 45.0065 208.475 45.7344 209.508 45.7344C210.168 45.7344 210.896 45.3874 211.691 44.6934C212.487 43.9824 213.604 42.9076 215.043 41.4688V44.3887ZM196.457 45.7852C198.15 45.7852 199.741 44.3464 201.23 41.4688C202.737 38.5742 203.49 35.9082 203.49 33.4707C203.49 32.5228 203.279 31.7865 202.855 31.2617C202.432 30.7201 201.865 30.4492 201.154 30.4492C199.462 30.4492 197.854 31.888 196.33 34.7656C194.824 37.6432 194.07 40.2923 194.07 42.7129C194.07 43.627 194.29 44.3717 194.73 44.9473C195.188 45.5059 195.763 45.7852 196.457 45.7852ZM257.344 44.3887C253.332 48.5527 248.491 50.6348 242.82 50.6348C238.758 50.6348 235.423 49.3652 232.816 46.8262C230.227 44.2702 228.932 40.9948 228.932 37C228.932 33.0221 229.871 29.2389 231.75 25.6504C233.629 22.0618 236.083 19.1927 239.113 17.043C242.16 14.8932 245.148 13.8184 248.076 13.8184C250.531 13.8184 252.528 14.5547 254.068 16.0273C255.626 17.5 256.404 19.4128 256.404 21.7656C256.404 24.8294 255.465 27.487 253.586 29.7383C251.724 31.9727 249.54 33.0898 247.035 33.0898C245.715 33.0898 244.632 32.7513 243.785 32.0742C242.939 31.3971 242.516 30.5254 242.516 29.459C242.516 28.5449 242.88 27.6986 243.607 26.9199C244.149 27.9186 244.894 28.418 245.842 28.418C247.196 28.418 248.449 27.5716 249.6 25.8789C250.768 24.1862 251.352 22.3327 251.352 20.3184C251.352 18.9134 251.021 17.7962 250.361 16.9668C249.718 16.1374 248.855 15.7227 247.771 15.7227C246.197 15.7227 244.513 16.7044 242.719 18.668C240.941 20.6315 239.452 23.1536 238.25 26.2344C237.065 29.3151 236.473 32.2435 236.473 35.0195C236.473 38.5573 237.471 41.4603 239.469 43.7285C241.483 45.9967 244.039 47.1309 247.137 47.1309C249.1 47.1309 250.869 46.6738 252.443 45.7598C254.018 44.8457 255.651 43.4154 257.344 41.4688V44.3887ZM284.461 44.3887C281.753 46.9616 279.814 48.6374 278.646 49.416C277.479 50.1947 276.361 50.584 275.295 50.584C272.62 50.584 271.359 48.2227 271.512 43.5C269.819 45.9206 268.253 47.7064 266.814 48.8574C265.393 50.0085 263.92 50.584 262.396 50.584C260.907 50.584 259.637 49.89 258.588 48.502C257.555 47.097 257.039 45.3789 257.039 43.3477C257.039 40.8086 257.733 38.388 259.121 36.0859C260.526 33.7839 262.32 31.9219 264.504 30.5C266.688 29.0781 268.617 28.3672 270.293 28.3672C272.409 28.3672 273.89 29.3405 274.736 31.2871L279.916 28.418H281.338L279.104 35.8574C277.952 39.5983 277.377 42.1628 277.377 43.5508C277.377 45.0065 277.893 45.7344 278.926 45.7344C279.586 45.7344 280.314 45.3874 281.109 44.6934C281.905 43.9824 283.022 42.9076 284.461 41.4688V44.3887ZM265.875 45.7852C267.568 45.7852 269.159 44.3464 270.648 41.4688C272.155 38.5742 272.908 35.9082 272.908 33.4707C272.908 32.5228 272.697 31.7865 272.273 31.2617C271.85 30.7201 271.283 30.4492 270.572 30.4492C268.88 30.4492 267.271 31.888 265.748 34.7656C264.242 37.6432 263.488 40.2923 263.488 42.7129C263.488 43.627 263.708 44.3717 264.148 44.9473C264.605 45.5059 265.181 45.7852 265.875 45.7852ZM303.453 44.3887C299.204 48.5527 295.929 50.6348 293.627 50.6348C292.594 50.6348 291.723 50.2031 291.012 49.3398C290.301 48.4596 289.945 47.3763 289.945 46.0898C289.945 43.7031 291.223 40.5039 293.779 36.4922C292.527 37.1354 291.156 37.584 289.666 37.8379C288.566 39.8691 286.839 42.0527 284.486 44.3887H283.902V42.1035C285.223 40.7324 286.416 39.2598 287.482 37.6855C286.027 37.0423 285.299 36.0859 285.299 34.8164C285.299 33.513 285.739 32.125 286.619 30.6523C287.516 29.1628 288.743 28.418 290.301 28.418C291.621 28.418 292.281 29.0951 292.281 30.4492C292.281 31.5156 291.9 33.0391 291.139 35.0195C293.949 34.7148 296.403 32.5651 298.502 28.5703L300.812 28.4688L298.451 34.9688C297.469 37.7109 296.835 39.5814 296.547 40.5801C296.259 41.5618 296.115 42.4336 296.115 43.1953C296.115 43.9062 296.276 44.4733 296.598 44.8965C296.936 45.3197 297.385 45.5312 297.943 45.5312C298.553 45.5312 299.137 45.3281 299.695 44.9219C300.254 44.4987 301.507 43.3477 303.453 41.4688V44.3887ZM322.445 44.3887C320.296 46.5046 318.366 48.0703 316.656 49.0859C314.947 50.0846 313.059 50.584 310.994 50.584C308.692 50.584 306.83 49.8477 305.408 48.375C304.003 46.9023 303.301 44.9642 303.301 42.5605C303.301 38.972 304.545 35.7305 307.033 32.8359C309.521 29.9245 312.281 28.4688 315.311 28.4688C316.885 28.4688 318.146 28.875 319.094 29.6875C320.042 30.5 320.516 31.5664 320.516 32.8867C320.516 36.3906 316.792 39.2344 309.344 41.418C310.021 44.7188 311.79 46.3691 314.65 46.3691C315.768 46.3691 316.834 46.0729 317.85 45.4805C318.865 44.8711 320.397 43.5339 322.445 41.4688V44.3887ZM309.141 39.6914C313.474 38.4727 315.641 36.2214 315.641 32.9375C315.641 31.3125 315.048 30.5 313.863 30.5C312.746 30.5 311.68 31.3548 310.664 33.0645C309.648 34.7572 309.141 36.9661 309.141 39.6914Z" fill="#3A307C"/>
<path d="M36 5L2 25.5V64L36 83.5L69 64V25.5L36 5Z" stroke="#3A307C" stroke-width="3"/>
<circle cx="35.5" cy="44.5" r="29" fill="white" stroke="#3A307C" stroke-width="3"/>
<g filter="url(#filter0_d)">
<path d="M12 51.6084V52.965C12.9101 53.794 15.3261 54.9546 17.7089 52.965C20.6875 50.478 34.8357 55.6781 37.0697 55.452C38.8568 55.2711 38.8072 52.8143 38.5589 51.6084C38.9726 51.8345 39.8 52.7389 39.8 54.5476C39.8 56.8085 44.0197 56.1303 49.7286 54.5476C55.4375 52.965 53.9482 45.7301 53.4518 47.991C53.0547 49.7997 46.9982 51.1563 44.0197 51.6084C43.1095 51.0809 41.5872 49.4832 42.7786 47.3127C43.97 45.1423 48.5703 43.3938 50.7215 42.7909C51.0524 41.7358 51.1682 39.49 48.984 38.9474C46.2536 38.2691 39.8 46.6345 37.0697 48.8954C34.8854 50.7041 28.3822 47.5388 25.4036 45.7301L39.8 29.9038L41.2893 30.5821L34.8357 38.9474V41.6605H37.0697L46.2536 27.869C46.2536 26.8892 45.8068 24.7489 44.0197 24.0254C42.2325 23.3019 28.7131 38.1938 22.1768 45.7301C20.522 45.8055 17.0636 45.911 16.4679 45.7301C15.8721 45.5492 15.0613 46.7098 14.7304 47.3127L12 51.6084Z" fill="#3A307C"/>
<path d="M12 51.6084V52.965C12.9101 53.794 15.3261 54.9546 17.7089 52.965C20.6875 50.478 34.8357 55.6781 37.0697 55.452C38.8568 55.2711 38.8072 52.8143 38.5589 51.6084C38.9726 51.8345 39.8 52.7389 39.8 54.5476C39.8 56.8085 44.0197 56.1303 49.7286 54.5476C55.4375 52.965 53.9482 45.7301 53.4518 47.991C53.0547 49.7997 46.9982 51.1563 44.0197 51.6084C43.1095 51.0809 41.5872 49.4832 42.7786 47.3127C43.97 45.1423 48.5703 43.3938 50.7215 42.7909C51.0524 41.7358 51.1682 39.49 48.984 38.9474C46.2536 38.2691 39.8 46.6345 37.0697 48.8954C34.8854 50.7041 28.3822 47.5388 25.4036 45.7301L39.8 29.9038L41.2893 30.5821L34.8357 38.9474V41.6605H37.0697L46.2536 27.869C46.2536 26.8892 45.8068 24.7489 44.0197 24.0254C42.2325 23.3019 28.7131 38.1938 22.1768 45.7301C20.522 45.8055 17.0636 45.911 16.4679 45.7301C15.8721 45.5492 15.0613 46.7098 14.7304 47.3127L12 51.6084Z" stroke="black"/>
</g>
<defs>
<filter id="filter0_d" x="12" y="24" width="43" height="33" filterUnits="userSpaceOnUse" color-interpolation-filters="sRGB">
<feFlood flood-opacity="0" result="BackgroundImageFix"/>
<feColorMatrix in="SourceAlpha" type="matrix" values="0 0 0 0 0 0 0 0 0 0 0 0 0 0 0 0 0 0 127 0"/>
<feOffset dx="1" dy="1"/>
<feColorMatrix type="matrix" values="0 0 0 0 0 0 0 0 0 0 0 0 0 0 0 0 0 0 0.25 0"/>
<feBlend mode="normal" in2="BackgroundImageFix" result="effect1_dropShadow"/>
<feBlend mode="normal" in="SourceGraphic" in2="effect1_dropShadow" result="shape"/>
</filter>
</defs>
</svg>
